<svg xmlns="http://www.w3.org/2000/svg" viewBox="0 0 518.19 134.93"><defs><style>.cls-1{fill:#e52342;}.cls-2{fill:#fff;}.cls-3{fill:#323438;}</style></defs><title>nextrack_logo</title><g id="Layer_2" data-name="Layer 2"><g id="Layer_1-2" data-name="Layer 1"><polygon class="cls-1" points="40.49 40.04 0 80.52 0 91.6 40.49 132.09 86.5 86.06 40.49 40.04"/><polygon class="cls-1" points="5.36 114.83 14.23 105.85 12.03 103.65 3.15 112.63 5.36 114.83"/><path class="cls-2" d="M25.58,76.17a2.08,2.08,0,1,1-2.07,2.07,2.08,2.08,0,0,1,2.07-2.07M24,82.64v9l-12,12,2.2,2.21L26.68,93.36a1.54,1.54,0,0,0,.47-1.1V82.63a4.67,4.67,0,1,0-3.12,0"/><polygon class="cls-1" points="12.4 121.71 21.31 112.93 19.11 110.72 10.21 119.51 12.4 121.71"/><path class="cls-2" d="M36.27,73.89V84h1.48v8.31L19.11,110.71l2.2,2.22L40.4,94.09a1.58,1.58,0,0,0,.47-1.1V84h1.46V73.89Z"/><polygon class="cls-1" points="19.57 129.05 28.56 120.17 26.13 117.74 17.13 126.61 19.57 129.05"/><path class="cls-2" d="M49.14,73.18V84.31h1.61v9.13l-24.63,24.3,2.42,2.43L53.65,95.38a1.7,1.7,0,0,0,.52-1.22V84.31h1.62V73.18Z"/><polygon class="cls-1" points="40.49 0 40.49 33.98 109.51 103.13 109.51 69.15 40.49 0"/><polygon class="cls-3" points="77.55 134.93 109.51 103.14 109.51 69.15 43.63 134.93 77.55 134.93"/><path class="cls-3" d="M223.44,113.35H198.67a19,19,0,0,1-11.11-3.14,10.22,10.22,0,0,1-4.88-8.69V78.17a10.2,10.2,0,0,1,4.88-8.68,19,19,0,0,1,11.11-3.14h24.81v8.89H198.67a6.57,6.57,0,0,0-3.83,1.07c-1.07.74-1.21,1.39-1.21,1.87v6.71H221.4v8.89H193.63v7.74a2.17,2.17,0,0,0,1.18,1.86,6.27,6.27,0,0,0,3.79,1.08h25Z"/><polygon class="cls-3" points="172.9 113.1 162.78 113.1 136.74 80.73 136.74 113.1 127.01 113.1 127.01 66.72 140.5 66.72 140.64 66.89 162.54 94.2 162.54 66.72 172.9 66.72 172.9 113.1"/><polygon class="cls-3" points="278.35 113.04 263.92 113.04 253.46 97.81 241.95 113.04 228.25 113.04 246.37 88.86 229.66 66.84 243.75 66.84 253.48 80.98 263.56 66.84 276.92 66.84 260.29 88.93 278.35 113.04"/><path class="cls-1" d="M301.85,113.25a5.84,5.84,0,0,1-1.73-4.44v-32h-9.58a6.68,6.68,0,0,1-4.45-1.26,4.76,4.76,0,0,1-1.46-3.84,4.65,4.65,0,0,1,1.46-3.8,6.79,6.79,0,0,1,4.45-1.23h31.79a6.77,6.77,0,0,1,4.45,1.23,4.65,4.65,0,0,1,1.46,3.8,4.76,4.76,0,0,1-1.46,3.84,6.66,6.66,0,0,1-4.45,1.26h-9.58v32a5.84,5.84,0,0,1-1.73,4.44,7.13,7.13,0,0,1-9.17,0Z"/><path class="cls-1" d="M359.05,86a4.83,4.83,0,0,0,1.8-4.21,5,5,0,0,0-1.8-4.32q-1.8-1.32-5.94-1.32h-8.7V87.27h8.7Q357.25,87.27,359.05,86Zm14.71,24.12a4.49,4.49,0,0,1-1.8,3.63,6.45,6.45,0,0,1-4.18,1.46,6.64,6.64,0,0,1-3.06-.74,6.77,6.77,0,0,1-2.44-2.25l-8.83-12.9a7,7,0,0,0-2-2,4.65,4.65,0,0,0-2.48-.65h-4.41v12.17a6.13,6.13,0,0,1-1.63,4.51,6,6,0,0,1-4.48,1.67,5.76,5.76,0,0,1-6.19-6.18V72.46A5.23,5.23,0,0,1,338,66.68h17.05c5.8,0,10.15,1.26,13.08,3.78s4.38,6.14,4.38,10.9a14.4,14.4,0,0,1-3,9.21,14.7,14.7,0,0,1-8.43,5.06A9.05,9.05,0,0,1,365,97.12a13.82,13.82,0,0,1,3.29,3.47l4.22,6A6.35,6.35,0,0,1,373.76,110.1Z"/><path class="cls-1" d="M394.35,95.29h13.58l-6.79-15.15ZM426,109.42a4.86,4.86,0,0,1-1.81,3.8,6.1,6.1,0,0,1-4.11,1.56,5.25,5.25,0,0,1-2.85-.81,5.5,5.5,0,0,1-2-2.45l-3.05-6.86h-22L387,111.52a5.29,5.29,0,0,1-5,3.26,6.37,6.37,0,0,1-4.18-1.56,4.8,4.8,0,0,1-1.87-3.8,6,6,0,0,1,.61-2.52l17.94-36.82a6.33,6.33,0,0,1,2.62-2.82,7.66,7.66,0,0,1,3.83-1,7.78,7.78,0,0,1,3.81,1,6.29,6.29,0,0,1,2.65,2.82l17.93,36.82A5.84,5.84,0,0,1,426,109.42Z"/><path class="cls-1" d="M440,112.2a20.52,20.52,0,0,1-8.35-8.56,27.42,27.42,0,0,1-3-13,27.32,27.32,0,0,1,3-13A20.63,20.63,0,0,1,440,69.06a27.71,27.71,0,0,1,27.75,1.57,5.29,5.29,0,0,1,1.67,1.76,5.18,5.18,0,0,1,.51,2.45,5.46,5.46,0,0,1-1.19,3.56,3.59,3.59,0,0,1-2.89,1.47,5.24,5.24,0,0,1-1.83-.31,10.31,10.31,0,0,1-1.9-1,19,19,0,0,0-4.49-2,15.4,15.4,0,0,0-4.35-.62q-6,0-9,3.64t-2.95,11q0,7.47,2.95,11.11t9,3.63a12.24,12.24,0,0,0,3.95-.64c1.26-.44,2.89-1.1,4.89-2q1.43-.75,2.1-1a4.45,4.45,0,0,1,1.63-.27,3.6,3.6,0,0,1,2.89,1.46,5.47,5.47,0,0,1,1.19,3.57,5.2,5.2,0,0,1-.51,2.41,5.12,5.12,0,0,1-1.67,1.8A27.74,27.74,0,0,1,440,112.2Z"/><path class="cls-1" d="M518.19,109.14a5.79,5.79,0,0,1-5.7,5.64,6.32,6.32,0,0,1-4.62-2.17L488.5,92.77v16a6,6,0,0,1-1.69,4.51,6.3,6.3,0,0,1-4.62,1.67,5.76,5.76,0,0,1-6.19-6.18V72.46A6,6,0,0,1,477.67,68a6.09,6.09,0,0,1,4.52-1.66A6.34,6.34,0,0,1,486.81,68a6,6,0,0,1,1.69,4.45v15l19.09-19.23a5.4,5.4,0,0,1,7.95-.17,5.31,5.31,0,0,1,1.7,3.91,5.71,5.71,0,0,1-2,4.14L501.34,89.71l15.08,15.5A5.29,5.29,0,0,1,518.19,109.14Z"/></g></g></svg>